<?xml version="1.0" encoding="utf-8" standalone="no"?>
<!DOCTYPE svg PUBLIC "-//W3C//DTD SVG 1.1//EN"
  "http://www.w3.org/Graphics/SVG/1.1/DTD/svg11.dtd">
<svg xmlns:xlink="http://www.w3.org/1999/xlink" width="648pt" height="432pt" viewBox="0 0 648 432" xmlns="http://www.w3.org/2000/svg" version="1.1">
 <metadata>
  <rdf:RDF xmlns:dc="http://purl.org/dc/elements/1.1/" xmlns:cc="http://creativecommons.org/ns#" xmlns:rdf="http://www.w3.org/1999/02/22-rdf-syntax-ns#">
   <cc:Work>
    <dc:type rdf:resource="http://purl.org/dc/dcmitype/StillImage"/>
    <dc:date>2024-05-23T20:17:59.265864</dc:date>
    <dc:format>image/svg+xml</dc:format>
    <dc:creator>
     <cc:Agent>
      <dc:title>Matplotlib v3.5.3, https://matplotlib.org/</dc:title>
     </cc:Agent>
    </dc:creator>
   </cc:Work>
  </rdf:RDF>
 </metadata>
 <defs>
  <style type="text/css">*{stroke-linejoin: round; stroke-linecap: butt}</style>
 </defs>
 <g id="figure_1">
  <g id="patch_1">
   <path d="M 0 432 
L 648 432 
L 648 0 
L 0 0 
z
" style="fill: #ffffff"/>
  </g>
  <g id="axes_1">
   <g id="patch_2">
    <path d="M 104.94 342.18 
L 620.562273 342.18 
L 620.562273 35.28 
L 104.94 35.28 
z
" style="fill: #ffffff"/>
   </g>
   <g id="matplotlib.axis_1">
    <g id="xtick_1">
     <g id="line2d_1">
      <defs>
       <path id="m19d92932ea" d="M 0 0 
L 0 6 
" style="stroke: #262626; stroke-width: 0.5"/>
      </defs>
      <g>
       <use xlink:href="#m19d92932ea" x="128.377376" y="342.18" style="fill: #262626; stroke: #262626; stroke-width: 0.5"/>
      </g>
     </g>
     <g id="text_1">
      <!-- 0.70 -->
      <g style="fill: #262626" transform="translate(104.051204 369.574531)scale(0.25 -0.25)">
       <defs>
        <path id="ArialMT-30" d="M 266 2259 
Q 266 3072 433 3567 
Q 600 4063 929 4331 
Q 1259 4600 1759 4600 
Q 2128 4600 2406 4451 
Q 2684 4303 2865 4023 
Q 3047 3744 3150 3342 
Q 3253 2941 3253 2259 
Q 3253 1453 3087 958 
Q 2922 463 2592 192 
Q 2263 -78 1759 -78 
Q 1097 -78 719 397 
Q 266 969 266 2259 
z
M 844 2259 
Q 844 1131 1108 757 
Q 1372 384 1759 384 
Q 2147 384 2411 759 
Q 2675 1134 2675 2259 
Q 2675 3391 2411 3762 
Q 2147 4134 1753 4134 
Q 1366 4134 1134 3806 
Q 844 3388 844 2259 
z
" transform="scale(0.015625)"/>
        <path id="ArialMT-2e" d="M 581 0 
L 581 641 
L 1222 641 
L 1222 0 
L 581 0 
z
" transform="scale(0.015625)"/>
        <path id="ArialMT-37" d="M 303 3981 
L 303 4522 
L 3269 4522 
L 3269 4084 
Q 2831 3619 2401 2847 
Q 1972 2075 1738 1259 
Q 1569 684 1522 0 
L 944 0 
Q 953 541 1156 1306 
Q 1359 2072 1739 2783 
Q 2119 3494 2547 3981 
L 303 3981 
z
" transform="scale(0.015625)"/>
       </defs>
       <use xlink:href="#ArialMT-30"/>
       <use xlink:href="#ArialMT-2e" x="55.615234"/>
       <use xlink:href="#ArialMT-37" x="83.398438"/>
       <use xlink:href="#ArialMT-30" x="139.013672"/>
      </g>
     </g>
    </g>
    <g id="xtick_2">
     <g id="line2d_2">
      <g>
       <use xlink:href="#m19d92932ea" x="206.501963" y="342.18" style="fill: #262626; stroke: #262626; stroke-width: 0.5"/>
      </g>
     </g>
     <g id="text_2">
      <!-- 0.75 -->
      <g style="fill: #262626" transform="translate(182.175791 369.574531)scale(0.25 -0.25)">
       <defs>
        <path id="ArialMT-35" d="M 266 1200 
L 856 1250 
Q 922 819 1161 601 
Q 1400 384 1738 384 
Q 2144 384 2425 690 
Q 2706 997 2706 1503 
Q 2706 1984 2436 2262 
Q 2166 2541 1728 2541 
Q 1456 2541 1237 2417 
Q 1019 2294 894 2097 
L 366 2166 
L 809 4519 
L 3088 4519 
L 3088 3981 
L 1259 3981 
L 1013 2750 
Q 1425 3038 1878 3038 
Q 2478 3038 2890 2622 
Q 3303 2206 3303 1553 
Q 3303 931 2941 478 
Q 2500 -78 1738 -78 
Q 1113 -78 717 272 
Q 322 622 266 1200 
z
" transform="scale(0.015625)"/>
       </defs>
       <use xlink:href="#ArialMT-30"/>
       <use xlink:href="#ArialMT-2e" x="55.615234"/>
       <use xlink:href="#ArialMT-37" x="83.398438"/>
       <use xlink:href="#ArialMT-35" x="139.013672"/>
      </g>
     </g>
    </g>
    <g id="xtick_3">
     <g id="line2d_3">
      <g>
       <use xlink:href="#m19d92932ea" x="284.62655" y="342.18" style="fill: #262626; stroke: #262626; stroke-width: 0.5"/>
      </g>
     </g>
     <g id="text_3">
      <!-- 0.80 -->
      <g style="fill: #262626" transform="translate(260.300378 369.574531)scale(0.25 -0.25)">
       <defs>
        <path id="ArialMT-38" d="M 1131 2484 
Q 781 2613 612 2850 
Q 444 3088 444 3419 
Q 444 3919 803 4259 
Q 1163 4600 1759 4600 
Q 2359 4600 2725 4251 
Q 3091 3903 3091 3403 
Q 3091 3084 2923 2848 
Q 2756 2613 2416 2484 
Q 2838 2347 3058 2040 
Q 3278 1734 3278 1309 
Q 3278 722 2862 322 
Q 2447 -78 1769 -78 
Q 1091 -78 675 323 
Q 259 725 259 1325 
Q 259 1772 486 2073 
Q 713 2375 1131 2484 
z
M 1019 3438 
Q 1019 3113 1228 2906 
Q 1438 2700 1772 2700 
Q 2097 2700 2305 2904 
Q 2513 3109 2513 3406 
Q 2513 3716 2298 3927 
Q 2084 4138 1766 4138 
Q 1444 4138 1231 3931 
Q 1019 3725 1019 3438 
z
M 838 1322 
Q 838 1081 952 856 
Q 1066 631 1291 507 
Q 1516 384 1775 384 
Q 2178 384 2440 643 
Q 2703 903 2703 1303 
Q 2703 1709 2433 1975 
Q 2163 2241 1756 2241 
Q 1359 2241 1098 1978 
Q 838 1716 838 1322 
z
" transform="scale(0.015625)"/>
       </defs>
       <use xlink:href="#ArialMT-30"/>
       <use xlink:href="#ArialMT-2e" x="55.615234"/>
       <use xlink:href="#ArialMT-38" x="83.398438"/>
       <use xlink:href="#ArialMT-30" x="139.013672"/>
      </g>
     </g>
    </g>
    <g id="xtick_4">
     <g id="line2d_4">
      <g>
       <use xlink:href="#m19d92932ea" x="362.751136" y="342.18" style="fill: #262626; stroke: #262626; stroke-width: 0.5"/>
      </g>
     </g>
     <g id="text_4">
      <!-- 0.85 -->
      <g style="fill: #262626" transform="translate(338.424964 369.574531)scale(0.25 -0.25)">
       <use xlink:href="#ArialMT-30"/>
       <use xlink:href="#ArialMT-2e" x="55.615234"/>
       <use xlink:href="#ArialMT-38" x="83.398438"/>
       <use xlink:href="#ArialMT-35" x="139.013672"/>
      </g>
     </g>
    </g>
    <g id="xtick_5">
     <g id="line2d_5">
      <g>
       <use xlink:href="#m19d92932ea" x="440.875723" y="342.18" style="fill: #262626; stroke: #262626; stroke-width: 0.5"/>
      </g>
     </g>
     <g id="text_5">
      <!-- 0.90 -->
      <g style="fill: #262626" transform="translate(416.549551 369.574531)scale(0.25 -0.25)">
       <defs>
        <path id="ArialMT-39" d="M 350 1059 
L 891 1109 
Q 959 728 1153 556 
Q 1347 384 1650 384 
Q 1909 384 2104 503 
Q 2300 622 2425 820 
Q 2550 1019 2634 1356 
Q 2719 1694 2719 2044 
Q 2719 2081 2716 2156 
Q 2547 1888 2255 1720 
Q 1963 1553 1622 1553 
Q 1053 1553 659 1965 
Q 266 2378 266 3053 
Q 266 3750 677 4175 
Q 1088 4600 1706 4600 
Q 2153 4600 2523 4359 
Q 2894 4119 3086 3673 
Q 3278 3228 3278 2384 
Q 3278 1506 3087 986 
Q 2897 466 2520 194 
Q 2144 -78 1638 -78 
Q 1100 -78 759 220 
Q 419 519 350 1059 
z
M 2653 3081 
Q 2653 3566 2395 3850 
Q 2138 4134 1775 4134 
Q 1400 4134 1122 3828 
Q 844 3522 844 3034 
Q 844 2597 1108 2323 
Q 1372 2050 1759 2050 
Q 2150 2050 2401 2323 
Q 2653 2597 2653 3081 
z
" transform="scale(0.015625)"/>
       </defs>
       <use xlink:href="#ArialMT-30"/>
       <use xlink:href="#ArialMT-2e" x="55.615234"/>
       <use xlink:href="#ArialMT-39" x="83.398438"/>
       <use xlink:href="#ArialMT-30" x="139.013672"/>
      </g>
     </g>
    </g>
    <g id="xtick_6">
     <g id="line2d_6">
      <g>
       <use xlink:href="#m19d92932ea" x="519.00031" y="342.18" style="fill: #262626; stroke: #262626; stroke-width: 0.5"/>
      </g>
     </g>
     <g id="text_6">
      <!-- 0.95 -->
      <g style="fill: #262626" transform="translate(494.674138 369.574531)scale(0.25 -0.25)">
       <use xlink:href="#ArialMT-30"/>
       <use xlink:href="#ArialMT-2e" x="55.615234"/>
       <use xlink:href="#ArialMT-39" x="83.398438"/>
       <use xlink:href="#ArialMT-35" x="139.013672"/>
      </g>
     </g>
    </g>
    <g id="xtick_7">
     <g id="line2d_7">
      <g>
       <use xlink:href="#m19d92932ea" x="597.124897" y="342.18" style="fill: #262626; stroke: #262626; stroke-width: 0.5"/>
      </g>
     </g>
     <g id="text_7">
      <!-- 1.00 -->
      <g style="fill: #262626" transform="translate(572.798725 369.574531)scale(0.25 -0.25)">
       <defs>
        <path id="ArialMT-31" d="M 2384 0 
L 1822 0 
L 1822 3584 
Q 1619 3391 1289 3197 
Q 959 3003 697 2906 
L 697 3450 
Q 1169 3672 1522 3987 
Q 1875 4303 2022 4600 
L 2384 4600 
L 2384 0 
z
" transform="scale(0.015625)"/>
       </defs>
       <use xlink:href="#ArialMT-31"/>
       <use xlink:href="#ArialMT-2e" x="55.615234"/>
       <use xlink:href="#ArialMT-30" x="83.398438"/>
       <use xlink:href="#ArialMT-30" x="139.013672"/>
      </g>
     </g>
    </g>
    <g id="xtick_8">
     <g id="line2d_8">
      <defs>
       <path id="mc86cea6135" d="M 0 0 
L 0 4 
"/>
      </defs>
      <g>
       <use xlink:href="#mc86cea6135" x="167.439669" y="342.18" style="fill: #262626"/>
      </g>
     </g>
    </g>
    <g id="xtick_9">
     <g id="line2d_9">
      <g>
       <use xlink:href="#mc86cea6135" x="245.564256" y="342.18" style="fill: #262626"/>
      </g>
     </g>
    </g>
    <g id="xtick_10">
     <g id="line2d_10">
      <g>
       <use xlink:href="#mc86cea6135" x="323.688843" y="342.18" style="fill: #262626"/>
      </g>
     </g>
    </g>
    <g id="xtick_11">
     <g id="line2d_11">
      <g>
       <use xlink:href="#mc86cea6135" x="401.81343" y="342.18" style="fill: #262626"/>
      </g>
     </g>
    </g>
    <g id="xtick_12">
     <g id="line2d_12">
      <g>
       <use xlink:href="#mc86cea6135" x="479.938017" y="342.18" style="fill: #262626"/>
      </g>
     </g>
    </g>
    <g id="xtick_13">
     <g id="line2d_13">
      <g>
       <use xlink:href="#mc86cea6135" x="558.062603" y="342.18" style="fill: #262626"/>
      </g>
     </g>
    </g>
    <g id="text_8">
     <!-- $V_{SD}$(V) -->
     <g style="fill: #262626" transform="translate(324.876136 396.793281)scale(0.25 -0.25)">
      <defs>
       <path id="DejaVuSans-Oblique-56" d="M 1319 0 
L 500 4666 
L 1119 4666 
L 1797 653 
L 4063 4666 
L 4750 4666 
L 2053 0 
L 1319 0 
z
" transform="scale(0.015625)"/>
       <path id="DejaVuSans-Oblique-53" d="M 3859 4513 
L 3738 3897 
Q 3422 4066 3111 4152 
Q 2800 4238 2509 4238 
Q 1944 4238 1609 3991 
Q 1275 3744 1275 3334 
Q 1275 3109 1398 2989 
Q 1522 2869 2034 2731 
L 2413 2638 
Q 3053 2472 3303 2217 
Q 3553 1963 3553 1503 
Q 3553 797 2998 353 
Q 2444 -91 1538 -91 
Q 1166 -91 791 -17 
Q 416 56 38 206 
L 166 856 
Q 513 641 861 531 
Q 1209 422 1556 422 
Q 2147 422 2503 684 
Q 2859 947 2859 1369 
Q 2859 1650 2717 1795 
Q 2575 1941 2106 2059 
L 1728 2156 
Q 1081 2325 845 2545 
Q 609 2766 609 3163 
Q 609 3859 1145 4304 
Q 1681 4750 2541 4750 
Q 2875 4750 3203 4690 
Q 3531 4631 3859 4513 
z
" transform="scale(0.015625)"/>
       <path id="DejaVuSans-Oblique-44" d="M 1081 4666 
L 2438 4666 
Q 3519 4666 4070 4208 
Q 4622 3750 4622 2847 
Q 4622 2250 4412 1698 
Q 4203 1147 3834 769 
Q 3463 381 2891 190 
Q 2319 0 1538 0 
L 172 0 
L 1081 4666 
z
M 1613 4147 
L 909 519 
L 1734 519 
Q 2794 519 3375 1128 
Q 3956 1738 3956 2847 
Q 3956 3519 3581 3833 
Q 3206 4147 2406 4147 
L 1613 4147 
z
" transform="scale(0.015625)"/>
       <path id="ArialMT-28" d="M 1497 -1347 
Q 1031 -759 709 28 
Q 388 816 388 1659 
Q 388 2403 628 3084 
Q 909 3875 1497 4659 
L 1900 4659 
Q 1522 4009 1400 3731 
Q 1209 3300 1100 2831 
Q 966 2247 966 1656 
Q 966 153 1900 -1347 
L 1497 -1347 
z
" transform="scale(0.015625)"/>
       <path id="ArialMT-56" d="M 1803 0 
L 28 4581 
L 684 4581 
L 1875 1253 
Q 2019 853 2116 503 
Q 2222 878 2363 1253 
L 3600 4581 
L 4219 4581 
L 2425 0 
L 1803 0 
z
" transform="scale(0.015625)"/>
       <path id="ArialMT-29" d="M 791 -1347 
L 388 -1347 
Q 1322 153 1322 1656 
Q 1322 2244 1188 2822 
Q 1081 3291 891 3722 
Q 769 4003 388 4659 
L 791 4659 
Q 1378 3875 1659 3084 
Q 1900 2403 1900 1659 
Q 1900 816 1576 28 
Q 1253 -759 791 -1347 
z
" transform="scale(0.015625)"/>
      </defs>
      <use xlink:href="#DejaVuSans-Oblique-56" transform="translate(0 0.09375)"/>
      <use xlink:href="#DejaVuSans-Oblique-53" transform="translate(68.408203 -16.3125)scale(0.7)"/>
      <use xlink:href="#DejaVuSans-Oblique-44" transform="translate(112.841797 -16.3125)scale(0.7)"/>
      <use xlink:href="#ArialMT-28" transform="translate(169.477539 0.09375)"/>
      <use xlink:href="#ArialMT-56" transform="translate(202.77832 0.09375)"/>
      <use xlink:href="#ArialMT-29" transform="translate(269.477539 0.09375)"/>
     </g>
    </g>
   </g>
   <g id="matplotlib.axis_2">
    <g id="ytick_1">
     <g id="line2d_14">
      <defs>
       <path id="mf8b702bb56" d="M 0 0 
L -6 0 
" style="stroke: #262626; stroke-width: 0.5"/>
      </defs>
      <g>
       <use xlink:href="#mf8b702bb56" x="104.94" y="342.18" style="fill: #262626; stroke: #262626; stroke-width: 0.5"/>
      </g>
     </g>
     <g id="text_9">
      <!-- 0 -->
      <g style="fill: #262626" transform="translate(81.537656 351.127266)scale(0.25 -0.25)">
       <use xlink:href="#ArialMT-30"/>
      </g>
     </g>
    </g>
    <g id="ytick_2">
     <g id="line2d_15">
      <g>
       <use xlink:href="#mf8b702bb56" x="104.94" y="280.8" style="fill: #262626; stroke: #262626; stroke-width: 0.5"/>
      </g>
     </g>
     <g id="text_10">
      <!-- 20 -->
      <g style="fill: #262626" transform="translate(67.635312 289.747266)scale(0.25 -0.25)">
       <defs>
        <path id="ArialMT-32" d="M 3222 541 
L 3222 0 
L 194 0 
Q 188 203 259 391 
Q 375 700 629 1000 
Q 884 1300 1366 1694 
Q 2113 2306 2375 2664 
Q 2638 3022 2638 3341 
Q 2638 3675 2398 3904 
Q 2159 4134 1775 4134 
Q 1369 4134 1125 3890 
Q 881 3647 878 3216 
L 300 3275 
Q 359 3922 746 4261 
Q 1134 4600 1788 4600 
Q 2447 4600 2831 4234 
Q 3216 3869 3216 3328 
Q 3216 3053 3103 2787 
Q 2991 2522 2730 2228 
Q 2469 1934 1863 1422 
Q 1356 997 1212 845 
Q 1069 694 975 541 
L 3222 541 
z
" transform="scale(0.015625)"/>
       </defs>
       <use xlink:href="#ArialMT-32"/>
       <use xlink:href="#ArialMT-30" x="55.615234"/>
      </g>
     </g>
    </g>
    <g id="ytick_3">
     <g id="line2d_16">
      <g>
       <use xlink:href="#mf8b702bb56" x="104.94" y="219.42" style="fill: #262626; stroke: #262626; stroke-width: 0.5"/>
      </g>
     </g>
     <g id="text_11">
      <!-- 40 -->
      <g style="fill: #262626" transform="translate(67.635312 228.367266)scale(0.25 -0.25)">
       <defs>
        <path id="ArialMT-34" d="M 2069 0 
L 2069 1097 
L 81 1097 
L 81 1613 
L 2172 4581 
L 2631 4581 
L 2631 1613 
L 3250 1613 
L 3250 1097 
L 2631 1097 
L 2631 0 
L 2069 0 
z
M 2069 1613 
L 2069 3678 
L 634 1613 
L 2069 1613 
z
" transform="scale(0.015625)"/>
       </defs>
       <use xlink:href="#ArialMT-34"/>
       <use xlink:href="#ArialMT-30" x="55.615234"/>
      </g>
     </g>
    </g>
    <g id="ytick_4">
     <g id="line2d_17">
      <g>
       <use xlink:href="#mf8b702bb56" x="104.94" y="158.04" style="fill: #262626; stroke: #262626; stroke-width: 0.5"/>
      </g>
     </g>
     <g id="text_12">
      <!-- 60 -->
      <g style="fill: #262626" transform="translate(67.635312 166.987266)scale(0.25 -0.25)">
       <defs>
        <path id="ArialMT-36" d="M 3184 3459 
L 2625 3416 
Q 2550 3747 2413 3897 
Q 2184 4138 1850 4138 
Q 1581 4138 1378 3988 
Q 1113 3794 959 3422 
Q 806 3050 800 2363 
Q 1003 2672 1297 2822 
Q 1591 2972 1913 2972 
Q 2475 2972 2870 2558 
Q 3266 2144 3266 1488 
Q 3266 1056 3080 686 
Q 2894 316 2569 119 
Q 2244 -78 1831 -78 
Q 1128 -78 684 439 
Q 241 956 241 2144 
Q 241 3472 731 4075 
Q 1159 4600 1884 4600 
Q 2425 4600 2770 4297 
Q 3116 3994 3184 3459 
z
M 888 1484 
Q 888 1194 1011 928 
Q 1134 663 1356 523 
Q 1578 384 1822 384 
Q 2178 384 2434 671 
Q 2691 959 2691 1453 
Q 2691 1928 2437 2201 
Q 2184 2475 1800 2475 
Q 1419 2475 1153 2201 
Q 888 1928 888 1484 
z
" transform="scale(0.015625)"/>
       </defs>
       <use xlink:href="#ArialMT-36"/>
       <use xlink:href="#ArialMT-30" x="55.615234"/>
      </g>
     </g>
    </g>
    <g id="ytick_5">
     <g id="line2d_18">
      <g>
       <use xlink:href="#mf8b702bb56" x="104.94" y="96.66" style="fill: #262626; stroke: #262626; stroke-width: 0.5"/>
      </g>
     </g>
     <g id="text_13">
      <!-- 80 -->
      <g style="fill: #262626" transform="translate(67.635312 105.607266)scale(0.25 -0.25)">
       <use xlink:href="#ArialMT-38"/>
       <use xlink:href="#ArialMT-30" x="55.615234"/>
      </g>
     </g>
    </g>
    <g id="ytick_6">
     <g id="line2d_19">
      <g>
       <use xlink:href="#mf8b702bb56" x="104.94" y="35.28" style="fill: #262626; stroke: #262626; stroke-width: 0.5"/>
      </g>
     </g>
     <g id="text_14">
      <!-- 100 -->
      <g style="fill: #262626" transform="translate(53.732969 44.227266)scale(0.25 -0.25)">
       <use xlink:href="#ArialMT-31"/>
       <use xlink:href="#ArialMT-30" x="55.615234"/>
       <use xlink:href="#ArialMT-30" x="111.230469"/>
      </g>
     </g>
    </g>
    <g id="ytick_7">
     <g id="line2d_20">
      <defs>
       <path id="m734341663f" d="M 0 0 
L -4 0 
"/>
      </defs>
      <g>
       <use xlink:href="#m734341663f" x="104.94" y="311.49" style="fill: #262626"/>
      </g>
     </g>
    </g>
    <g id="ytick_8">
     <g id="line2d_21">
      <g>
       <use xlink:href="#m734341663f" x="104.94" y="250.11" style="fill: #262626"/>
      </g>
     </g>
    </g>
    <g id="ytick_9">
     <g id="line2d_22">
      <g>
       <use xlink:href="#m734341663f" x="104.94" y="188.73" style="fill: #262626"/>
      </g>
     </g>
    </g>
    <g id="ytick_10">
     <g id="line2d_23">
      <g>
       <use xlink:href="#m734341663f" x="104.94" y="127.35" style="fill: #262626"/>
      </g>
     </g>
    </g>
    <g id="ytick_11">
     <g id="line2d_24">
      <g>
       <use xlink:href="#m734341663f" x="104.94" y="65.97" style="fill: #262626"/>
      </g>
     </g>
    </g>
    <g id="text_15">
     <!-- % of Molecules -->
     <g style="fill: #262626" transform="translate(44.764219 273.485859)rotate(-90)scale(0.25 -0.25)">
      <defs>
       <path id="ArialMT-25" d="M 372 3481 
Q 372 3972 619 4315 
Q 866 4659 1334 4659 
Q 1766 4659 2048 4351 
Q 2331 4044 2331 3447 
Q 2331 2866 2045 2552 
Q 1759 2238 1341 2238 
Q 925 2238 648 2547 
Q 372 2856 372 3481 
z
M 1350 4272 
Q 1141 4272 1002 4090 
Q 863 3909 863 3425 
Q 863 2984 1003 2804 
Q 1144 2625 1350 2625 
Q 1563 2625 1702 2806 
Q 1841 2988 1841 3469 
Q 1841 3913 1700 4092 
Q 1559 4272 1350 4272 
z
M 1353 -169 
L 3859 4659 
L 4316 4659 
L 1819 -169 
L 1353 -169 
z
M 3334 1075 
Q 3334 1569 3581 1911 
Q 3828 2253 4300 2253 
Q 4731 2253 5014 1945 
Q 5297 1638 5297 1041 
Q 5297 459 5011 145 
Q 4725 -169 4303 -169 
Q 3888 -169 3611 142 
Q 3334 453 3334 1075 
z
M 4316 1866 
Q 4103 1866 3964 1684 
Q 3825 1503 3825 1019 
Q 3825 581 3965 400 
Q 4106 219 4313 219 
Q 4528 219 4667 400 
Q 4806 581 4806 1063 
Q 4806 1506 4665 1686 
Q 4525 1866 4316 1866 
z
" transform="scale(0.015625)"/>
       <path id="ArialMT-20" transform="scale(0.015625)"/>
       <path id="ArialMT-6f" d="M 213 1659 
Q 213 2581 725 3025 
Q 1153 3394 1769 3394 
Q 2453 3394 2887 2945 
Q 3322 2497 3322 1706 
Q 3322 1066 3130 698 
Q 2938 331 2570 128 
Q 2203 -75 1769 -75 
Q 1072 -75 642 372 
Q 213 819 213 1659 
z
M 791 1659 
Q 791 1022 1069 705 
Q 1347 388 1769 388 
Q 2188 388 2466 706 
Q 2744 1025 2744 1678 
Q 2744 2294 2464 2611 
Q 2184 2928 1769 2928 
Q 1347 2928 1069 2612 
Q 791 2297 791 1659 
z
" transform="scale(0.015625)"/>
       <path id="ArialMT-66" d="M 556 0 
L 556 2881 
L 59 2881 
L 59 3319 
L 556 3319 
L 556 3672 
Q 556 4006 616 4169 
Q 697 4388 901 4523 
Q 1106 4659 1475 4659 
Q 1713 4659 2000 4603 
L 1916 4113 
Q 1741 4144 1584 4144 
Q 1328 4144 1222 4034 
Q 1116 3925 1116 3625 
L 1116 3319 
L 1763 3319 
L 1763 2881 
L 1116 2881 
L 1116 0 
L 556 0 
z
" transform="scale(0.015625)"/>
       <path id="ArialMT-4d" d="M 475 0 
L 475 4581 
L 1388 4581 
L 2472 1338 
Q 2622 884 2691 659 
Q 2769 909 2934 1394 
L 4031 4581 
L 4847 4581 
L 4847 0 
L 4263 0 
L 4263 3834 
L 2931 0 
L 2384 0 
L 1059 3900 
L 1059 0 
L 475 0 
z
" transform="scale(0.015625)"/>
       <path id="ArialMT-6c" d="M 409 0 
L 409 4581 
L 972 4581 
L 972 0 
L 409 0 
z
" transform="scale(0.015625)"/>
       <path id="ArialMT-65" d="M 2694 1069 
L 3275 997 
Q 3138 488 2766 206 
Q 2394 -75 1816 -75 
Q 1088 -75 661 373 
Q 234 822 234 1631 
Q 234 2469 665 2931 
Q 1097 3394 1784 3394 
Q 2450 3394 2872 2941 
Q 3294 2488 3294 1666 
Q 3294 1616 3291 1516 
L 816 1516 
Q 847 969 1125 678 
Q 1403 388 1819 388 
Q 2128 388 2347 550 
Q 2566 713 2694 1069 
z
M 847 1978 
L 2700 1978 
Q 2663 2397 2488 2606 
Q 2219 2931 1791 2931 
Q 1403 2931 1139 2672 
Q 875 2413 847 1978 
z
" transform="scale(0.015625)"/>
       <path id="ArialMT-63" d="M 2588 1216 
L 3141 1144 
Q 3050 572 2676 248 
Q 2303 -75 1759 -75 
Q 1078 -75 664 370 
Q 250 816 250 1647 
Q 250 2184 428 2587 
Q 606 2991 970 3192 
Q 1334 3394 1763 3394 
Q 2303 3394 2647 3120 
Q 2991 2847 3088 2344 
L 2541 2259 
Q 2463 2594 2264 2762 
Q 2066 2931 1784 2931 
Q 1359 2931 1093 2626 
Q 828 2322 828 1663 
Q 828 994 1084 691 
Q 1341 388 1753 388 
Q 2084 388 2306 591 
Q 2528 794 2588 1216 
z
" transform="scale(0.015625)"/>
       <path id="ArialMT-75" d="M 2597 0 
L 2597 488 
Q 2209 -75 1544 -75 
Q 1250 -75 995 37 
Q 741 150 617 320 
Q 494 491 444 738 
Q 409 903 409 1263 
L 409 3319 
L 972 3319 
L 972 1478 
Q 972 1038 1006 884 
Q 1059 663 1231 536 
Q 1403 409 1656 409 
Q 1909 409 2131 539 
Q 2353 669 2445 892 
Q 2538 1116 2538 1541 
L 2538 3319 
L 3100 3319 
L 3100 0 
L 2597 0 
z
" transform="scale(0.015625)"/>
       <path id="ArialMT-73" d="M 197 991 
L 753 1078 
Q 800 744 1014 566 
Q 1228 388 1613 388 
Q 2000 388 2187 545 
Q 2375 703 2375 916 
Q 2375 1106 2209 1216 
Q 2094 1291 1634 1406 
Q 1016 1563 777 1677 
Q 538 1791 414 1992 
Q 291 2194 291 2438 
Q 291 2659 392 2848 
Q 494 3038 669 3163 
Q 800 3259 1026 3326 
Q 1253 3394 1513 3394 
Q 1903 3394 2198 3281 
Q 2494 3169 2634 2976 
Q 2775 2784 2828 2463 
L 2278 2388 
Q 2241 2644 2061 2787 
Q 1881 2931 1553 2931 
Q 1166 2931 1000 2803 
Q 834 2675 834 2503 
Q 834 2394 903 2306 
Q 972 2216 1119 2156 
Q 1203 2125 1616 2013 
Q 2213 1853 2448 1751 
Q 2684 1650 2818 1456 
Q 2953 1263 2953 975 
Q 2953 694 2789 445 
Q 2625 197 2315 61 
Q 2006 -75 1616 -75 
Q 969 -75 630 194 
Q 291 463 197 991 
z
" transform="scale(0.015625)"/>
      </defs>
      <use xlink:href="#ArialMT-25"/>
      <use xlink:href="#ArialMT-20" x="88.916016"/>
      <use xlink:href="#ArialMT-6f" x="116.699219"/>
      <use xlink:href="#ArialMT-66" x="172.314453"/>
      <use xlink:href="#ArialMT-20" x="200.097656"/>
      <use xlink:href="#ArialMT-4d" x="227.880859"/>
      <use xlink:href="#ArialMT-6f" x="311.181641"/>
      <use xlink:href="#ArialMT-6c" x="366.796875"/>
      <use xlink:href="#ArialMT-65" x="389.013672"/>
      <use xlink:href="#ArialMT-63" x="444.628906"/>
      <use xlink:href="#ArialMT-75" x="494.628906"/>
      <use xlink:href="#ArialMT-6c" x="550.244141"/>
      <use xlink:href="#ArialMT-65" x="572.460938"/>
      <use xlink:href="#ArialMT-73" x="628.076172"/>
     </g>
    </g>
   </g>
   <g id="line2d_25">
    <path d="M 128.377376 183.046667 
L 206.501963 265.860952 
L 284.62655 306.074118 
L 362.751136 315.347213 
L 440.875723 308.47422 
L 519.00031 306.174972 
L 597.124897 302.881829 
" clip-path="url(#pae6ce89ad6)" style="fill: none; stroke: #41aa41; stroke-width: 6; stroke-linecap: round"/>
    <defs>
     <path id="mca3ee2d465" d="M -6 6 
L 6 6 
L 6 -6 
L -6 -6 
z
" style="stroke: #41aa41; stroke-linejoin: miter"/>
    </defs>
    <g clip-path="url(#pae6ce89ad6)">
     <use xlink:href="#mca3ee2d465" x="128.377376" y="183.046667" style="fill: #41aa41; stroke: #41aa41; stroke-linejoin: miter"/>
     <use xlink:href="#mca3ee2d465" x="206.501963" y="265.860952" style="fill: #41aa41; stroke: #41aa41; stroke-linejoin: miter"/>
     <use xlink:href="#mca3ee2d465" x="284.62655" y="306.074118" style="fill: #41aa41; stroke: #41aa41; stroke-linejoin: miter"/>
     <use xlink:href="#mca3ee2d465" x="362.751136" y="315.347213" style="fill: #41aa41; stroke: #41aa41; stroke-linejoin: miter"/>
     <use xlink:href="#mca3ee2d465" x="440.875723" y="308.47422" style="fill: #41aa41; stroke: #41aa41; stroke-linejoin: miter"/>
     <use xlink:href="#mca3ee2d465" x="519.00031" y="306.174972" style="fill: #41aa41; stroke: #41aa41; stroke-linejoin: miter"/>
     <use xlink:href="#mca3ee2d465" x="597.124897" y="302.881829" style="fill: #41aa41; stroke: #41aa41; stroke-linejoin: miter"/>
    </g>
   </g>
   <g id="line2d_26">
    <path d="M 128.377376 217.146667 
L 206.501963 140.827619 
L 284.62655 94.362353 
L 362.751136 99.007869 
L 440.875723 113.335491 
L 519.00031 177.585587 
L 597.124897 203.700732 
" clip-path="url(#pae6ce89ad6)" style="fill: none; stroke: #4c92c3; stroke-width: 6; stroke-linecap: round"/>
    <defs>
     <path id="m1df5e1d33c" d="M 0 -6 
L -6 6 
L 6 6 
z
" style="stroke: #4c92c3; stroke-linejoin: miter"/>
    </defs>
    <g clip-path="url(#pae6ce89ad6)">
     <use xlink:href="#m1df5e1d33c" x="128.377376" y="217.146667" style="fill: #4c92c3; stroke: #4c92c3; stroke-linejoin: miter"/>
     <use xlink:href="#m1df5e1d33c" x="206.501963" y="140.827619" style="fill: #4c92c3; stroke: #4c92c3; stroke-linejoin: miter"/>
     <use xlink:href="#m1df5e1d33c" x="284.62655" y="94.362353" style="fill: #4c92c3; stroke: #4c92c3; stroke-linejoin: miter"/>
     <use xlink:href="#m1df5e1d33c" x="362.751136" y="99.007869" style="fill: #4c92c3; stroke: #4c92c3; stroke-linejoin: miter"/>
     <use xlink:href="#m1df5e1d33c" x="440.875723" y="113.335491" style="fill: #4c92c3; stroke: #4c92c3; stroke-linejoin: miter"/>
     <use xlink:href="#m1df5e1d33c" x="519.00031" y="177.585587" style="fill: #4c92c3; stroke: #4c92c3; stroke-linejoin: miter"/>
     <use xlink:href="#m1df5e1d33c" x="597.124897" y="203.700732" style="fill: #4c92c3; stroke: #4c92c3; stroke-linejoin: miter"/>
    </g>
   </g>
   <g id="line2d_27">
    <path d="M 128.377376 319.446667 
L 206.501963 312.951429 
L 284.62655 319.203529 
L 362.751136 305.284918 
L 440.875723 297.830289 
L 519.00031 235.879441 
L 597.124897 213.057439 
" clip-path="url(#pae6ce89ad6)" style="fill: none; stroke: #ff993e; stroke-width: 6; stroke-linecap: round"/>
    <defs>
     <path id="m14f2b80281" d="M 0 6 
C 1.591219 6 3.117479 5.367802 4.242641 4.242641 
C 5.367802 3.117479 6 1.591219 6 0 
C 6 -1.591219 5.367802 -3.117479 4.242641 -4.242641 
C 3.117479 -5.367802 1.591219 -6 0 -6 
C -1.591219 -6 -3.117479 -5.367802 -4.242641 -4.242641 
C -5.367802 -3.117479 -6 -1.591219 -6 0 
C -6 1.591219 -5.367802 3.117479 -4.242641 4.242641 
C -3.117479 5.367802 -1.591219 6 0 6 
z
" style="stroke: #ff993e"/>
    </defs>
    <g clip-path="url(#pae6ce89ad6)">
     <use xlink:href="#m14f2b80281" x="128.377376" y="319.446667" style="fill: #ff993e; stroke: #ff993e"/>
     <use xlink:href="#m14f2b80281" x="206.501963" y="312.951429" style="fill: #ff993e; stroke: #ff993e"/>
     <use xlink:href="#m14f2b80281" x="284.62655" y="319.203529" style="fill: #ff993e; stroke: #ff993e"/>
     <use xlink:href="#m14f2b80281" x="362.751136" y="305.284918" style="fill: #ff993e; stroke: #ff993e"/>
     <use xlink:href="#m14f2b80281" x="440.875723" y="297.830289" style="fill: #ff993e; stroke: #ff993e"/>
     <use xlink:href="#m14f2b80281" x="519.00031" y="235.879441" style="fill: #ff993e; stroke: #ff993e"/>
     <use xlink:href="#m14f2b80281" x="597.124897" y="213.057439" style="fill: #ff993e; stroke: #ff993e"/>
    </g>
   </g>
   <g id="patch_3">
    <path d="M 104.94 342.18 
L 104.94 35.28 
" style="fill: none; stroke: #000000; stroke-width: 0.8; stroke-linejoin: miter; stroke-linecap: square"/>
   </g>
   <g id="patch_4">
    <path d="M 620.562273 342.18 
L 620.562273 35.28 
" style="fill: none; stroke: #000000; stroke-width: 0.8; stroke-linejoin: miter; stroke-linecap: square"/>
   </g>
   <g id="patch_5">
    <path d="M 104.94 342.18 
L 620.562273 342.18 
" style="fill: none; stroke: #000000; stroke-width: 0.8; stroke-linejoin: miter; stroke-linecap: square"/>
   </g>
   <g id="patch_6">
    <path d="M 104.94 35.28 
L 620.562273 35.28 
" style="fill: none; stroke: #000000; stroke-width: 0.8; stroke-linejoin: miter; stroke-linecap: square"/>
   </g>
   <g id="legend_1">
    <g id="patch_7">
     <path d="M 470.550554 121.021094 
L 608.662273 121.021094 
Q 612.062273 121.021094 612.062273 117.621094 
L 612.062273 47.18 
Q 612.062273 43.78 608.662273 43.78 
L 470.550554 43.78 
Q 467.150554 43.78 467.150554 47.18 
L 467.150554 117.621094 
Q 467.150554 121.021094 470.550554 121.021094 
z
" style="fill: #ffffff; opacity: 0.8; stroke: #cccccc; stroke-linejoin: miter"/>
    </g>
    <g id="line2d_28">
     <path d="M 473.950554 56.798281 
L 486.700554 56.798281 
L 499.450554 56.798281 
" style="fill: none; stroke: #41aa41; stroke-width: 6; stroke-linecap: round"/>
     <g>
      <use xlink:href="#mca3ee2d465" x="486.700554" y="56.798281" style="fill: #41aa41; stroke: #41aa41; stroke-linejoin: miter"/>
     </g>
    </g>
    <g id="text_16">
     <!-- No Movement -->
     <g style="fill: #262626" transform="translate(499.450554 62.748281)scale(0.17 -0.17)">
      <defs>
       <path id="ArialMT-4e" d="M 488 0 
L 488 4581 
L 1109 4581 
L 3516 984 
L 3516 4581 
L 4097 4581 
L 4097 0 
L 3475 0 
L 1069 3600 
L 1069 0 
L 488 0 
z
" transform="scale(0.015625)"/>
       <path id="ArialMT-76" d="M 1344 0 
L 81 3319 
L 675 3319 
L 1388 1331 
Q 1503 1009 1600 663 
Q 1675 925 1809 1294 
L 2547 3319 
L 3125 3319 
L 1869 0 
L 1344 0 
z
" transform="scale(0.015625)"/>
       <path id="ArialMT-6d" d="M 422 0 
L 422 3319 
L 925 3319 
L 925 2853 
Q 1081 3097 1340 3245 
Q 1600 3394 1931 3394 
Q 2300 3394 2536 3241 
Q 2772 3088 2869 2813 
Q 3263 3394 3894 3394 
Q 4388 3394 4653 3120 
Q 4919 2847 4919 2278 
L 4919 0 
L 4359 0 
L 4359 2091 
Q 4359 2428 4304 2576 
Q 4250 2725 4106 2815 
Q 3963 2906 3769 2906 
Q 3419 2906 3187 2673 
Q 2956 2441 2956 1928 
L 2956 0 
L 2394 0 
L 2394 2156 
Q 2394 2531 2256 2718 
Q 2119 2906 1806 2906 
Q 1569 2906 1367 2781 
Q 1166 2656 1075 2415 
Q 984 2175 984 1722 
L 984 0 
L 422 0 
z
" transform="scale(0.015625)"/>
       <path id="ArialMT-6e" d="M 422 0 
L 422 3319 
L 928 3319 
L 928 2847 
Q 1294 3394 1984 3394 
Q 2284 3394 2536 3286 
Q 2788 3178 2913 3003 
Q 3038 2828 3088 2588 
Q 3119 2431 3119 2041 
L 3119 0 
L 2556 0 
L 2556 2019 
Q 2556 2363 2490 2533 
Q 2425 2703 2258 2804 
Q 2091 2906 1866 2906 
Q 1506 2906 1245 2678 
Q 984 2450 984 1813 
L 984 0 
L 422 0 
z
" transform="scale(0.015625)"/>
       <path id="ArialMT-74" d="M 1650 503 
L 1731 6 
Q 1494 -44 1306 -44 
Q 1000 -44 831 53 
Q 663 150 594 308 
Q 525 466 525 972 
L 525 2881 
L 113 2881 
L 113 3319 
L 525 3319 
L 525 4141 
L 1084 4478 
L 1084 3319 
L 1650 3319 
L 1650 2881 
L 1084 2881 
L 1084 941 
Q 1084 700 1114 631 
Q 1144 563 1211 522 
Q 1278 481 1403 481 
Q 1497 481 1650 503 
z
" transform="scale(0.015625)"/>
      </defs>
      <use xlink:href="#ArialMT-4e"/>
      <use xlink:href="#ArialMT-6f" x="72.216797"/>
      <use xlink:href="#ArialMT-20" x="127.832031"/>
      <use xlink:href="#ArialMT-4d" x="155.615234"/>
      <use xlink:href="#ArialMT-6f" x="238.916016"/>
      <use xlink:href="#ArialMT-76" x="294.53125"/>
      <use xlink:href="#ArialMT-65" x="344.53125"/>
      <use xlink:href="#ArialMT-6d" x="400.146484"/>
      <use xlink:href="#ArialMT-65" x="483.447266"/>
      <use xlink:href="#ArialMT-6e" x="539.0625"/>
      <use xlink:href="#ArialMT-74" x="594.677734"/>
     </g>
    </g>
    <g id="line2d_29">
     <path d="M 473.950554 80.845313 
L 486.700554 80.845313 
L 499.450554 80.845313 
" style="fill: none; stroke: #4c92c3; stroke-width: 6; stroke-linecap: round"/>
     <g>
      <use xlink:href="#m1df5e1d33c" x="486.700554" y="80.845313" style="fill: #4c92c3; stroke: #4c92c3; stroke-linejoin: miter"/>
     </g>
    </g>
    <g id="text_17">
     <!-- Translations -->
     <g style="fill: #262626" transform="translate(499.450554 86.795313)scale(0.17 -0.17)">
      <defs>
       <path id="ArialMT-54" d="M 1659 0 
L 1659 4041 
L 150 4041 
L 150 4581 
L 3781 4581 
L 3781 4041 
L 2266 4041 
L 2266 0 
L 1659 0 
z
" transform="scale(0.015625)"/>
       <path id="ArialMT-72" d="M 416 0 
L 416 3319 
L 922 3319 
L 922 2816 
Q 1116 3169 1280 3281 
Q 1444 3394 1641 3394 
Q 1925 3394 2219 3213 
L 2025 2691 
Q 1819 2813 1613 2813 
Q 1428 2813 1281 2702 
Q 1134 2591 1072 2394 
Q 978 2094 978 1738 
L 978 0 
L 416 0 
z
" transform="scale(0.015625)"/>
       <path id="ArialMT-61" d="M 2588 409 
Q 2275 144 1986 34 
Q 1697 -75 1366 -75 
Q 819 -75 525 192 
Q 231 459 231 875 
Q 231 1119 342 1320 
Q 453 1522 633 1644 
Q 813 1766 1038 1828 
Q 1203 1872 1538 1913 
Q 2219 1994 2541 2106 
Q 2544 2222 2544 2253 
Q 2544 2597 2384 2738 
Q 2169 2928 1744 2928 
Q 1347 2928 1158 2789 
Q 969 2650 878 2297 
L 328 2372 
Q 403 2725 575 2942 
Q 747 3159 1072 3276 
Q 1397 3394 1825 3394 
Q 2250 3394 2515 3294 
Q 2781 3194 2906 3042 
Q 3031 2891 3081 2659 
Q 3109 2516 3109 2141 
L 3109 1391 
Q 3109 606 3145 398 
Q 3181 191 3288 0 
L 2700 0 
Q 2613 175 2588 409 
z
M 2541 1666 
Q 2234 1541 1622 1453 
Q 1275 1403 1131 1340 
Q 988 1278 909 1158 
Q 831 1038 831 891 
Q 831 666 1001 516 
Q 1172 366 1500 366 
Q 1825 366 2078 508 
Q 2331 650 2450 897 
Q 2541 1088 2541 1459 
L 2541 1666 
z
" transform="scale(0.015625)"/>
       <path id="ArialMT-69" d="M 425 3934 
L 425 4581 
L 988 4581 
L 988 3934 
L 425 3934 
z
M 425 0 
L 425 3319 
L 988 3319 
L 988 0 
L 425 0 
z
" transform="scale(0.015625)"/>
      </defs>
      <use xlink:href="#ArialMT-54"/>
      <use xlink:href="#ArialMT-72" x="57.333984"/>
      <use xlink:href="#ArialMT-61" x="90.634766"/>
      <use xlink:href="#ArialMT-6e" x="146.25"/>
      <use xlink:href="#ArialMT-73" x="201.865234"/>
      <use xlink:href="#ArialMT-6c" x="251.865234"/>
      <use xlink:href="#ArialMT-61" x="274.082031"/>
      <use xlink:href="#ArialMT-74" x="329.697266"/>
      <use xlink:href="#ArialMT-69" x="357.480469"/>
      <use xlink:href="#ArialMT-6f" x="379.697266"/>
      <use xlink:href="#ArialMT-6e" x="435.3125"/>
      <use xlink:href="#ArialMT-73" x="490.927734"/>
     </g>
    </g>
    <g id="line2d_30">
     <path d="M 473.950554 104.892344 
L 486.700554 104.892344 
L 499.450554 104.892344 
" style="fill: none; stroke: #ff993e; stroke-width: 6; stroke-linecap: round"/>
     <g>
      <use xlink:href="#m14f2b80281" x="486.700554" y="104.892344" style="fill: #ff993e; stroke: #ff993e"/>
     </g>
    </g>
    <g id="text_18">
     <!-- Rotations -->
     <g style="fill: #262626" transform="translate(499.450554 110.842344)scale(0.17 -0.17)">
      <defs>
       <path id="ArialMT-52" d="M 503 0 
L 503 4581 
L 2534 4581 
Q 3147 4581 3465 4457 
Q 3784 4334 3975 4021 
Q 4166 3709 4166 3331 
Q 4166 2844 3850 2509 
Q 3534 2175 2875 2084 
Q 3116 1969 3241 1856 
Q 3506 1613 3744 1247 
L 4541 0 
L 3778 0 
L 3172 953 
Q 2906 1366 2734 1584 
Q 2563 1803 2427 1890 
Q 2291 1978 2150 2013 
Q 2047 2034 1813 2034 
L 1109 2034 
L 1109 0 
L 503 0 
z
M 1109 2559 
L 2413 2559 
Q 2828 2559 3062 2645 
Q 3297 2731 3419 2920 
Q 3541 3109 3541 3331 
Q 3541 3656 3305 3865 
Q 3069 4075 2559 4075 
L 1109 4075 
L 1109 2559 
z
" transform="scale(0.015625)"/>
      </defs>
      <use xlink:href="#ArialMT-52"/>
      <use xlink:href="#ArialMT-6f" x="72.216797"/>
      <use xlink:href="#ArialMT-74" x="127.832031"/>
      <use xlink:href="#ArialMT-61" x="155.615234"/>
      <use xlink:href="#ArialMT-74" x="211.230469"/>
      <use xlink:href="#ArialMT-69" x="239.013672"/>
      <use xlink:href="#ArialMT-6f" x="261.230469"/>
      <use xlink:href="#ArialMT-6e" x="316.845703"/>
      <use xlink:href="#ArialMT-73" x="372.460938"/>
     </g>
    </g>
   </g>
  </g>
 </g>
 <defs>
  <clipPath id="pae6ce89ad6">
   <rect x="104.94" y="35.28" width="515.622273" height="306.9"/>
  </clipPath>
 </defs>
</svg>
